<?xml version="1.0" encoding="UTF-8"?> <svg xmlns="http://www.w3.org/2000/svg" viewBox="0 0 562.19 269.22"><defs><style>.cls-1{fill:#01416e;}.cls-2{fill:#023c54;}.cls-3{fill:#018578;}.cls-4{fill:#363e4b;}</style></defs><g id="Layer_2" data-name="Layer 2"><g id="Layer_1-2" data-name="Layer 1"><path class="cls-1" d="M90.15,269.22H0V108.46c19.35,24.91,27.34,54.13,31.37,86.12C35.5,227.32,59.9,256,90.15,269.22Z"></path><path class="cls-2" d="M182.56,194.35c-1.29,1.48-4.65,3.05-6.72,2.63-3.35-.68-6.38-2.93-9.5-4.58-6.27-3.34-12.47-6.79-18.79-10a8.11,8.11,0,0,0-2.81-.67,1.77,1.77,0,0,0-.69,0,2,2,0,0,0-1.41,2.62,15,15,0,0,0,1.67,3.61c4.75,6.6,9.77,13,14.58,19.57a38.83,38.83,0,0,1,4.53,7.33c1.34,3.07,1.11,6.11-1.81,8.34l-.32.23c-3,2.12-6.1,2.06-8.85-.32a46.4,46.4,0,0,1-5.53-5.93c-5.38-6.76-10.63-13.63-16-20.4a15,15,0,0,0-2.4-2.45l-.16-.13A2.07,2.07,0,0,0,125,196a7.09,7.09,0,0,0,.22,1.38c1.81,6.88,3.8,13.72,5.79,20.55,1,3.42,2.73,6.75,3,10.21.18,2.42-.87,5.88-2.63,7.27a6,6,0,0,1-5.5,1.15h0a6.46,6.46,0,0,1-3.51-2.59,41,41,0,0,1-4.82-10c-2.64-7.54-4.77-15.24-7.45-22.75-.36-1-1.16-3.51-2-4.36a2.42,2.42,0,0,0-3.63.3,13.23,13.23,0,0,0-1.64,4.93c-.7,7.24,1.73,16.13,2.07,23.4.32,6.88.43,8.81-3.56,9.83-1.17.3-4-1.38-5.06-4.76-1.15-3.83-3-8.41-3.9-11.71-.78-2.89-1.55-5.49-2.21-8.52s-2.12-6.41-3-9.29c-2.79-7.31-7.59-14.3-11.08-22.39-1.43-3.31-6.28-14.19-6.28-14.19-3.63-9.47-7.12-33.07-18-50.47C44.53,102.36,21.89,75.07,0,71.22V0H111.32c-3.24,15.38-6.41,30.76-8.83,46.26a431.16,431.16,0,0,0-5.43,57.43c-.09,4.68,7.26,12.58,12.38,13.73,5.76,1.3,11.53,3.18,17.35,4.73h0c10.17,2,20.2,1.92,30.55-2.15,3.06-1.21,5.3-.78,6.47.85.95,1.32,1.2,3.44.62,6.12a17.44,17.44,0,0,1-2.49,5.89,24.08,24.08,0,0,1-19.86,10.43q-.86,0-1.71-.06a39.89,39.89,0,0,1-12.17-3.15c-2.63-1.1-11.52-1.55-13.47-1a21.12,21.12,0,0,1-16-2l-.58-.34a7.93,7.93,0,0,0-2.77-.91h-.08a3.22,3.22,0,0,0-2.6.59A2.35,2.35,0,0,0,93,140l.14.09c1.7,1,3.48,2,5.25,2.91,1.16.53,2.3,1.07,3.42,1.65a1.58,1.58,0,0,1,.47.39,4.43,4.43,0,0,1,.5.7,1,1,0,0,1-.25,1.29c-3.93-.14-7.87-.26-11.8-.41-1.52-.07-3.12-.5-4.53-.15a3.41,3.41,0,0,0-1.12.5,2.43,2.43,0,0,0,.78,4.39l.26,0c3.06.52,6.22.43,9.31.83a28.75,28.75,0,0,1,4.76,1.39h.07a4.11,4.11,0,0,1,.86.24l.08,0a.67.67,0,0,1,.25.94l-5,1.91L91,158.84c-1.59.6-3.38.88-4.72,1.83a3.72,3.72,0,0,0-.93,1.06.73.73,0,0,1,0,.09,2.4,2.4,0,0,0,1.22,3.39,2.31,2.31,0,0,0,1.34.18l1-.24a19.18,19.18,0,0,0,2.69-.56c3.11-.81,6.2-1.73,9.31-2.52a3.88,3.88,0,0,1,.92-.09,1.14,1.14,0,0,1,.94,1.81h0a2.43,2.43,0,0,1-.26.29c-2.11,1.86-4.29,3.65-6.43,5.47l-.36.31A12.16,12.16,0,0,0,93,172.41a3.12,3.12,0,0,0,0,2.88,4.31,4.31,0,0,0,2.91,1.05,4.49,4.49,0,0,0,2.14-1c2.82-1.81,5.68-3.57,8.4-5.52,1.76-1.26,3.48-2.58,5.11-4a.35.35,0,0,1,.12-.07,16.06,16.06,0,0,1,4.14-.55,1,1,0,0,1,1.08.88c.12.95.26,1.9.38,2.85a.57.57,0,0,1,0,.13,9.76,9.76,0,0,0,.27,5.6,7.55,7.55,0,0,0,2.84,3.84c.09.06.18.13.27.18,1.87,1.11,3.3.48,3.32-1.78,0-5.94,2.65-10.61,6.22-15.14a12.38,12.38,0,0,0,1.87-3.32.31.31,0,0,1,.13-.17c1.67-1.16,4.44-1.92,5.74-1.3a162.23,162.23,0,0,1,19.31,10.89c7.1,4.58,13.95,9.57,20.74,14.61a20.34,20.34,0,0,1,5.15,5C184.59,189.51,183.7,193,182.56,194.35Z"></path><path class="cls-2" d="M194.81,0l-.27.47C184.11,18.81,163,63.59,152.38,81.83c-1.6,2.74-3.92,5-6.78,7.79a5.14,5.14,0,0,1-8.47-2.2,21.4,21.4,0,0,1-1.38-7.4c.91-18,7.8-41.16,15-80Z"></path><path class="cls-2" d="M268.31,0V37c-10.92,9.53-13.23,11.59-19.95,17.29-14.05,11.93-40.11,40-54.46,51.57a22.78,22.78,0,0,1-5.09,3c-3.23,1.46-7.73-2.82-7.09-6.31.77-4.17.7-4.93,1.91-8.51C188.54,79.35,198.9,67,225,20c4.5-8.11,6.24-11.24,11.34-20Z"></path><path class="cls-2" d="M268.31,79.09v45.54c-9.2,3.69-41.74,21.12-51.06,24.23-2.84.94-6.17.38-9.58-.4a6.31,6.31,0,0,1-4.51-8.33,32.79,32.79,0,0,1,4.38-7.72C219.87,115.13,245.6,98.56,268.31,79.09Z"></path><path class="cls-3" d="M268.31,159.19v110H148.86c18.93-8.1,38.37-28.18,46.58-41.22C227.78,176.64,244.44,172.54,268.31,159.19Z"></path><path class="cls-4" d="M312.39,243.55l-3-7.73h-9.74l-3,7.73h-2.86l9.61-24.4h2.37l9.56,24.4Zm-3.91-10.27-2.83-7.53c-.36-1-.74-2.13-1.13-3.51a32.1,32.1,0,0,1-1,3.51l-2.86,7.53Z"></path><path class="cls-4" d="M334.4,243.55a7.73,7.73,0,0,1-6.12-2.44q-2.17-2.43-2.17-6.89c0-3,.73-5.4,2.2-7.06a7.93,7.93,0,0,1,6.27-2.49,12.38,12.38,0,0,1,2.63.28,9.08,9.08,0,0,1,2.06.66l-.85,2.35a12.22,12.22,0,0,0-2-.61,9,9,0,0,0-1.91-.24q-5.55,0-5.55,7.08a8.43,8.43,0,0,0,1.35,5.15,4.7,4.7,0,0,0,4,1.8,12.31,12.31,0,0,0,4.67-1v2.44A9.93,9.93,0,0,1,334.4,243.55Z"></path><path class="cls-4" d="M359.49,243.55a7.73,7.73,0,0,1-6.12-2.44q-2.17-2.43-2.17-6.89c0-3,.73-5.4,2.2-7.06a7.93,7.93,0,0,1,6.27-2.49,12.38,12.38,0,0,1,2.63.28,9.08,9.08,0,0,1,2.06.66l-.85,2.35a12.22,12.22,0,0,0-2-.61,9,9,0,0,0-1.91-.24q-5.55,0-5.55,7.08a8.43,8.43,0,0,0,1.35,5.15,4.7,4.7,0,0,0,4,1.8,12.31,12.31,0,0,0,4.67-1v2.44A9.93,9.93,0,0,1,359.49,243.55Z"></path><path class="cls-4" d="M385,243.55a8.38,8.38,0,0,1-6.38-2.46,9.51,9.51,0,0,1-2.33-6.83,10.59,10.59,0,0,1,2.16-7,7.21,7.21,0,0,1,5.83-2.59,6.88,6.88,0,0,1,5.42,2.25,8.62,8.62,0,0,1,2,5.94v1.75H379.14a7.24,7.24,0,0,0,1.63,4.87,5.61,5.61,0,0,0,4.33,1.66,14.62,14.62,0,0,0,5.81-1.23v2.46a14.34,14.34,0,0,1-2.77.9A14.92,14.92,0,0,1,385,243.55ZM384.25,227a4.47,4.47,0,0,0-3.5,1.43,6.61,6.61,0,0,0-1.54,4h9.53a6.06,6.06,0,0,0-1.17-4A4.09,4.09,0,0,0,384.25,227Z"></path><path class="cls-4" d="M408,243.55h-2.76V218H408Z"></path><path class="cls-4" d="M430.47,243.55a8.35,8.35,0,0,1-6.37-2.46,9.52,9.52,0,0,1-2.34-6.83,10.54,10.54,0,0,1,2.17-7,7.21,7.21,0,0,1,5.83-2.59,6.86,6.86,0,0,1,5.41,2.25,8.62,8.62,0,0,1,2,5.94v1.75H424.62a7.29,7.29,0,0,0,1.62,4.87,5.64,5.64,0,0,0,4.33,1.66,14.7,14.7,0,0,0,5.82-1.23v2.46a14.56,14.56,0,0,1-2.77.9A15,15,0,0,1,430.47,243.55ZM429.72,227a4.49,4.49,0,0,0-3.5,1.43,6.54,6.54,0,0,0-1.53,4h9.52a6.11,6.11,0,0,0-1.16-4A4.12,4.12,0,0,0,429.72,227Z"></path><path class="cls-4" d="M459.07,225a11.09,11.09,0,0,1,2.18.2l-.39,2.56a9.15,9.15,0,0,0-2-.25,4.85,4.85,0,0,0-3.78,1.79,6.54,6.54,0,0,0-1.57,4.47v9.78h-2.76V225.33H453l.32,3.38h.13a8,8,0,0,1,2.45-2.75A5.51,5.51,0,0,1,459.07,225Z"></path><path class="cls-4" d="M484.74,243.22l-.55-2.6h-.13a7.68,7.68,0,0,1-2.72,2.32,8.17,8.17,0,0,1-3.38.61,6.1,6.1,0,0,1-4.25-1.4,5.1,5.1,0,0,1-1.54-4q0-5.52,8.83-5.79l3.09-.09v-1.14a4.64,4.64,0,0,0-.92-3.16,3.81,3.81,0,0,0-2.95-1,12,12,0,0,0-5.15,1.39l-.85-2.11a13.12,13.12,0,0,1,6.16-1.56,6.89,6.89,0,0,1,4.83,1.45c1.05,1,1.57,2.51,1.57,4.63v12.44Zm-6.23-1.95a5.6,5.6,0,0,0,4-1.41,5.23,5.23,0,0,0,1.47-4v-1.64l-2.75.11a10.12,10.12,0,0,0-4.75,1,3.09,3.09,0,0,0-1.45,2.82,2.85,2.85,0,0,0,.9,2.28A3.78,3.78,0,0,0,478.51,241.27Z"></path><path class="cls-4" d="M507.3,241.5a8.06,8.06,0,0,0,1.41-.11,8.57,8.57,0,0,0,1.09-.22v2.11a5,5,0,0,1-1.33.36,10.35,10.35,0,0,1-1.57.14q-5.28,0-5.28-5.57V227.37H499v-1.32l2.61-1.15,1.16-3.89h1.6v4.22h5.28v2.14h-5.28V238.1a3.69,3.69,0,0,0,.78,2.52A2.7,2.7,0,0,0,507.3,241.5Z"></path><path class="cls-4" d="M538,234.09a10,10,0,0,1-2.25,7,7.92,7.92,0,0,1-6.2,2.5,8.15,8.15,0,0,1-4.33-1.15,7.52,7.52,0,0,1-2.93-3.29,11.42,11.42,0,0,1-1-5,10,10,0,0,1,2.23-6.94,7.84,7.84,0,0,1,6.18-2.48,7.67,7.67,0,0,1,6.07,2.54A10,10,0,0,1,538,234.09Zm-13.88,0a8.65,8.65,0,0,0,1.39,5.32,5.54,5.54,0,0,0,8.22,0,8.6,8.6,0,0,0,1.41-5.33,8.46,8.46,0,0,0-1.41-5.28,4.91,4.91,0,0,0-4.14-1.8,4.84,4.84,0,0,0-4.09,1.78A8.54,8.54,0,0,0,524.1,234.09Z"></path><path class="cls-4" d="M560,225a11.09,11.09,0,0,1,2.18.2l-.39,2.56a9.07,9.07,0,0,0-2-.25A4.86,4.86,0,0,0,556,229.3a6.54,6.54,0,0,0-1.57,4.47v9.78H551.7V225.33H554l.31,3.38h.13a8,8,0,0,1,2.45-2.75A5.51,5.51,0,0,1,560,225Z"></path><path class="cls-3" d="M293.76,193.66V106.19h51.77l-.6,12.83H309.82v24.84H343.2v12.72H309.82v37.08Z"></path><path class="cls-3" d="M379.89,193.66a33.72,33.72,0,0,1-11.2-1.58,14.56,14.56,0,0,1-7-5,20.89,20.89,0,0,1-3.58-8.25,58.08,58.08,0,0,1-1-11.88V103l15.64-1v64.66q0,8.85,2.09,12c1.4,2.09,4.1,3.13,8.13,3.13a55.38,55.38,0,0,0,7.58-.66l.42,11.17-1.47.3c-.93.2-1.83.37-2.68.51s-1.94.27-3.26.41A34.51,34.51,0,0,1,379.89,193.66Z"></path><path class="cls-3" d="M425.3,193.66q-14.57,0-22.93-9.43T394,159.39q0-15.88,8.36-25T426,125.17q14.69,0,23,9.35t8.33,24.87q0,15.71-8.42,25T425.3,193.66Zm.42-11.88q7.93,0,11.94-5.79t4-16.6q0-10.94-4-16.66T425.6,137q-7.94,0-12,5.76t-4,16.69q0,10.74,4.06,16.54T425.72,181.78Z"></path><path class="cls-3" d="M480.92,193.66,461,128H477l12.6,48.13q.42-1.38,6.81-23.47T503.61,128h16.07q.77,2.51,6.86,24.42T533.11,176l13-48h15.7l-20.54,65.62H525.65q-.78-2.57-7.26-26t-7-25.26q-1.2,4.37-7.62,26.27t-7.43,25Z"></path></g></g></svg> 